<?xml version="1.0" encoding="utf-8"?>
<!-- Generator: Adobe Illustrator 28.0.0, SVG Export Plug-In . SVG Version: 6.00 Build 0)  -->
<svg version="1.1" id="Layer_1" xmlns="http://www.w3.org/2000/svg" xmlns:xlink="http://www.w3.org/1999/xlink" x="0px" y="0px"
	 width="162" height="71" viewBox="0 0 445.6 182.8" style="enable-background:new 0 0 445.6 182.8;" xml:space="preserve">
<style type="text/css">
	.st0{display:none;fill:#FFFFFF;}
	.st1{fill:#00467F;}
	.st2{fill:#FFFFFF;}
	.st3{fill:#FFD200;}
	.st4{fill:url(#SVGID_1_);}
</style>
<path class="st0" d="M92.7,181.9l-4.2-1.9c-23.9-10.9-42.2-26.8-54.5-47.5c-3.1-5.2-5.7-10.7-8-16.7c-6.1,0.5-11,0.9-15.3,1.5
	l-5.3,0.8l0.2-5.4c0.1-4.5,0.7-9.5,1.6-13.9C6,96.4,2.8,89.7,1.8,86.9l-2-5.3l7.6-1.1h0.3c1.9-0.3,4.1-0.6,6.5-0.9v-5.1l3.9-0.6
	c0.6-0.1,1.1-0.2,1.7-0.2V23.5c-1.1-2.4-6.1-13.5-6.1-13.7l-1.1-2.4l6.3-1.1l0,0c1.3-0.2,37.2-6.1,75.9-6.1c39.6,0,75.6,6,75.9,6.1
	l6.2,1.1l-1.1,2.4c-0.1,0.1-5,11.3-6.1,13.7v50.2c0.5,0.1,1,0.1,1.5,0.2l3.9,0.6v5.1c2.2,0.3,4.3,0.6,6.1,0.9l8.3,1.2l-2,5.3
	c-1,2.6-4.1,9.1-5.4,11.9l0,0c0.8,4.4,1.4,9.4,1.5,13.9l0.2,5.4l-5.3-0.8c-1.5-0.2-3.2-0.4-4.9-0.7c-2.9-0.4-6.2-1-9.9-1.4
	c-1.6,4.3-4,10-8.2,17.3c-12.3,20.7-30.6,36.6-54.5,47.5l-6.1,2.8L92.7,181.9z"/>
<g>
	<path class="st1" d="M196,147.9c2.9,0,3.8,0.2,7.5,0.2c0.1,0,0.5,0.4,0.5,0.6c0.4,1.3,0.8,2.2,1.7,4.1c2.3,4.7,6.6,13.8,7.5,15
		c0.1,0.1,0.4,0.2,0.4,0.1c1.1-1.9,6.2-12.1,7.7-15.6c0.2-0.6,1.1-2.6,1.3-3.5c0-0.2,0.5-0.7,0.6-0.7c3.2,0,6.9-0.2,7.3-0.2
		c0.6,0,1.2,0.1,1.2,0.6s-0.5,0.7-1.3,0.9c-0.7,0.2-1.3,0.4-2.1,0.8c-0.8,0.4-1.1,1.3-1.1,3.7c0,7.7,0.3,16.8,0.6,19.1
		c0.2,1.5,0.6,2.3,2.9,2.9c0.8,0.2,1.2,0.6,1.2,1c0,0.5-0.7,0.7-1.4,0.7c-0.5,0-4.8-0.2-6.5-0.2c-0.8,0-3.3,0.1-4.4,0.1
		c-0.7,0-1.3-0.2-1.3-0.6s0.6-0.8,1.3-1c1.9-0.5,2-1.9,2.2-3.7c0.2-2.3,0.3-14.1,0.2-16.4c0-0.5-0.3-0.7-0.5-0.3
		c-1.5,3-5.4,11.2-6.7,14.2c-1.2,2.7-2.2,5.1-2.8,6.6c-0.6,1.3-1.1,1.4-1.3,1.4s-0.6-0.5-0.9-1c-0.2-0.7-0.8-2.5-1.7-4.7
		c-2.4-5.9-6.4-14.5-7.3-16.2c-0.1-0.3-0.3-0.2-0.3,0.1c-0.4,3.1-0.8,11.1-0.7,16.1c0,2.6,0.5,3.2,2.8,4c1,0.3,1.3,0.6,1.3,1
		s-0.6,0.6-1.3,0.6c-1.4,0-3.1-0.2-4.2-0.2s-3,0.2-4.1,0.2c-0.7,0-1.4-0.1-1.4-0.6c0-0.3,0.5-0.6,1.2-0.9c2.5-0.9,3-1.5,3.5-4.7
		c0.4-3.5,1.5-14.4,1.5-18.5c0-0.6-0.1-2.3-1.7-2.8c-0.7-0.2-1.3-0.4-1.9-0.6c-0.3-0.1-1-0.4-1-0.8C194.6,148.1,195,147.9,196,147.9
		z"/>
	<path class="st1" d="M255.8,148.1c1.5,0,3.4-0.2,4-0.3c0.2,0,0.5,0.3,0.6,0.6c0,0.8,0,4,0,4.9c0,0.6-0.3,1.3-0.7,1.3
		s-0.8-0.7-0.9-1.2c-0.6-2.6-1.9-3.3-2.9-3.5c-0.9-0.1-2.9-0.3-6.4-0.3c-0.2,0-0.6,0.2-0.6,1.3c-0.1,1.1-0.2,7.5-0.2,10.1
		c0,0.1,0.2,0.5,0.5,0.5h3.7c3.3,0,3.2-0.2,4-2.2c0.3-0.7,0.6-1.2,1-1.2c0.4,0,0.5,0.8,0.5,1.3c-0.1,1.3-0.2,2.1-0.2,3.2
		c0,1.2,0.1,2,0.2,3.1c0,0.8-0.2,1.4-0.6,1.4c-0.4,0-0.7-0.6-0.9-1c-0.6-2-1.2-2.3-3-2.5c-1.5-0.1-3.2-0.1-4.6-0.1
		c-0.2,0-0.6,0.5-0.6,0.6c-0.2,1.3-0.1,4.9-0.1,6.4c0,1.1,0,2.8,0.2,3.8c0.1,0.4,0.6,1,1,1.1c0.7,0.1,2.2,0.3,3.7,0.3
		c1.4,0,3.1,0,4.2-0.4c1.4-0.5,2.6-1.6,3.6-3.4c0.6-1.2,1.1-1.6,1.4-1.6c0.5,0,0.4,1,0.4,1.3c0,0.4-1.3,4.6-1.7,5.3
		c-0.1,0.3-0.9,0.6-1.1,0.6c-0.5,0-11.9-0.2-15.3-0.2c-3.1,0-3.6,0.2-5.2,0.2c-0.9,0-1.6-0.1-1.6-0.6c0-0.4,0.6-0.7,1.4-0.9
		c2.3-0.6,2.9-1,3.1-3.5c0.1-1.9,0.4-5.4,0.4-11.1c0-5.4,0-7.5,0-8.9c-0.1-1.7-0.5-2.6-2.4-2.9c-1-0.2-1.5-0.4-1.5-0.8
		s0.8-0.7,1.4-0.7c2.2,0,5.9,0.1,8.3,0.1L255.8,148.1L255.8,148.1z"/>
	<path class="st1" d="M296.2,152.1c2.5,2.4,4.3,6.3,4.3,10c0,6.5-4.1,11.2-7.3,12.9c-2.7,1.6-6.6,2.5-10.5,2.5
		c-1.9,0-6.5-0.1-9.2-0.3c-1.4,0-2.4,0-3.1,0c-1,0-1.5-0.4-1.5-0.7c0-0.4,0.6-0.7,1.2-0.8c2.8-0.4,3.1-1,3.2-5.2
		c0.1-2.5,0.1-4.4,0.1-6.3c0-2.4,0-7.5-0.1-10.6c-0.2-2.9-0.3-3.7-2.8-4c-0.5-0.1-1.1-0.5-1.1-0.8c0-0.4,0.6-0.7,1.2-0.7h2.4
		c2.3,0,7.5-0.4,10.9-0.4C290.3,147.7,294.4,150.4,296.2,152.1z M279.4,149.8c-0.3,0.2-0.4,0.4-0.4,0.6c-0.1,1.1-0.2,4-0.2,8.1v6.7
		c0,3.2,0,5.5,0.2,7.5c0.1,1.1,0.5,1.6,0.9,2c0.7,0.6,2.4,1.2,3.1,1.2c1.9,0,4.4-0.6,6.9-2.7c2.8-2.3,4.3-6.8,4.3-11.2
		c0-3.2-1.3-7.2-3.7-9.6c-2-2.1-5.5-3.3-8.7-3.3C280.7,149.3,280,149.5,279.4,149.8z"/>
	<path class="st1" d="M310.2,152.9c-0.1-2.2-0.1-2.9-2.4-3.5c-1.1-0.3-1.4-0.6-1.4-0.9c0-0.4,0.6-0.6,1.5-0.6c1.3,0,3.7,0.1,5.2,0.1
		c2.3,0,3.9-0.1,5.5-0.1c0.8,0,1.4,0.2,1.4,0.6s-0.6,0.8-1.4,0.9c-2.3,0.4-2.4,1.6-2.5,2.8c-0.1,1.1-0.2,2.8-0.2,10.7
		c0,5.6,0,7.5,0.1,8.9c0.2,2.7,0.5,3.3,3,4c0.8,0.2,1.3,0.5,1.3,1s-0.9,0.6-1.4,0.6c-1.8,0-5-0.3-6.9-0.2c-1.3,0-2.7,0.1-4.4,0.1
		c-1.1,0-1.4-0.3-1.4-0.8c0-0.3,0.4-0.6,1.4-0.9c2.1-0.5,2.4-1.5,2.5-3.5c0.1-1.7,0.2-6.5,0.2-10.4
		C310.3,159.5,310.3,154.7,310.2,152.9z"/>
	<path class="st1" d="M350.1,148c1.1,0.3,2.3,0.6,3.3,0.7c0.3,0,0.7,0.6,0.7,1.2c0,1.3,0.1,2.9,0.2,4.2c0,1-0.3,1.7-0.8,1.7
		c-0.2,0-0.6-0.6-0.9-1.2c-0.5-1.4-1.2-2.7-1.9-3.3c-2-1.7-4.3-2.7-6.8-2.7c-7.3,0-10.8,5.8-10.8,12.8c0,3.1,0.6,5.8,1.6,7.8
		c2.5,5.1,6.7,6.9,10.3,6.9c0.6,0,2.9-0.1,4.5-1.1c1.7-1,2.9-2.3,4-4.2c0.6-1,0.9-1.4,1.2-1.4c0.5,0,0.5,1.2,0.4,1.7
		c-0.2,1.1-1,3.2-1.4,4c-0.1,0.4-1,1.2-1.7,1.5c-0.6,0.2-3.8,1.3-8.1,1.3c-6.8,0-11.6-3-13.5-5.2c-1.7-2-3.9-5.2-3.9-10.4
		c0-5.6,3.1-9.5,5.1-11c3.9-3.2,8.6-4.1,12.4-4.1C346.2,147.3,348.4,147.6,350.1,148z"/>
	<path class="st1" d="M366.4,152.9c-0.1-2.2-0.1-2.9-2.4-3.5c-1.1-0.3-1.4-0.6-1.4-0.9c0-0.4,0.6-0.6,1.5-0.6c1.3,0,3.7,0.1,5.2,0.1
		c2.3,0,3.9-0.1,5.5-0.1c0.8,0,1.4,0.2,1.4,0.6s-0.6,0.8-1.4,0.9c-2.3,0.4-2.4,1.6-2.5,2.8c-0.1,1.1-0.2,2.8-0.2,10.7
		c0,5.6,0,7.5,0.1,8.9c0.2,2.7,0.5,3.3,3,4c0.8,0.2,1.3,0.5,1.3,1s-0.9,0.6-1.4,0.6c-1.8,0-5-0.3-6.9-0.2c-1.3,0-2.7,0.1-4.4,0.1
		c-1.1,0-1.4-0.3-1.4-0.8c0-0.3,0.4-0.6,1.4-0.9c2.1-0.5,2.4-1.5,2.5-3.5c0.1-1.7,0.2-6.5,0.2-10.4
		C366.6,159.5,366.6,154.7,366.4,152.9z"/>
	<path class="st1" d="M384.3,147.9c1,0,4.6,0.2,7,0.2c0.2,0,0.9,0.5,1,0.6c0.7,0.8,2,2.3,3.9,4.5c2.3,2.8,11.3,12.1,13.7,14.7
		c0.2,0.2,0.4-0.2,0.4-0.3c0.2-1.3,0.1-6.5,0.1-10.4c0-1.6-0.1-3.7-0.3-4.9c-0.1-0.9-0.6-2-2.9-2.6c-0.9-0.2-1.5-0.5-1.5-1.1
		c0-0.3,0.5-0.6,1.3-0.6c1.1,0,2.2,0,3.1,0c2.2,0,4.1-0.2,5.3-0.2c0.8,0,1.1,0.3,1.1,0.6c0,0.3-0.3,0.7-1.2,0.9
		c-2.4,0.8-2.6,1.6-2.9,3.5c-0.1,1.7-0.5,13.3-0.5,17.2c0,1.9,0.3,6,0.3,7.2c0,0.4-0.5,0.9-0.7,0.9c-1,0-2.1-1.2-2.5-1.7
		c-0.9-1.2-1.7-2.2-3-3.7c-4.3-5.3-11.8-13.2-15.9-18c-0.2-0.3-0.5,0.1-0.5,0.2c-0.1,1.2-0.2,2.3-0.2,5.9c0,6.4-0.1,9.9,0.1,12.1
		c0.2,1.5,0.7,2.3,2.9,2.9c1,0.3,1.3,0.6,1.3,0.9c0,0.5-0.6,0.7-1.5,0.7c-1.3,0-2.4-0.2-4-0.2c-1,0-3.6,0.1-4.4,0.1
		c-0.6,0-1.2-0.2-1.2-0.6c0-0.5,0.6-0.7,1-0.8c2.1-0.6,3.2-1,3.4-4.5c0.2-5.2,0.8-14,0.8-17.3c0-1.8-0.1-2.4-0.3-2.6
		c-0.8-1-1.1-1.7-3.5-2.2c-0.5-0.1-1.2-0.5-1.2-0.8C382.9,148.2,383.4,147.9,384.3,147.9z"/>
	<path class="st1" d="M438.1,148.1c1.5,0,3.4-0.2,4-0.3c0.2,0,0.5,0.3,0.6,0.6c0,0.8,0,4,0,4.9c0,0.6-0.3,1.3-0.7,1.3
		s-0.8-0.7-0.9-1.2c-0.6-2.6-1.9-3.3-2.9-3.5c-0.9-0.1-2.9-0.3-6.4-0.3c-0.2,0-0.6,0.2-0.6,1.3c-0.1,1.1-0.2,7.5-0.2,10.1
		c0,0.1,0.2,0.5,0.5,0.5h3.7c3.3,0,3.2-0.2,4-2.2c0.3-0.7,0.6-1.2,1-1.2s0.5,0.8,0.5,1.3c-0.1,1.3-0.2,2.1-0.2,3.2
		c0,1.2,0.1,2,0.2,3.1c0,0.8-0.2,1.4-0.6,1.4c-0.4,0-0.7-0.6-0.9-1c-0.6-2-1.2-2.3-3-2.5c-1.5-0.1-3.2-0.1-4.6-0.1
		c-0.2,0-0.6,0.5-0.6,0.6c-0.2,1.3-0.1,4.9-0.1,6.4c0,1.1,0,2.8,0.2,3.8c0.1,0.4,0.6,1,1,1.1c0.7,0.1,2.2,0.3,3.7,0.3
		c1.4,0,3.1,0,4.2-0.4c1.4-0.5,2.6-1.6,3.6-3.4c0.6-1.2,1.1-1.6,1.4-1.6c0.5,0,0.4,1,0.4,1.3c0,0.4-1.3,4.6-1.7,5.3
		c-0.1,0.3-0.9,0.6-1.1,0.6c-0.5,0-11.9-0.2-15.3-0.2c-3.1,0-3.6,0.2-5.2,0.2c-0.9,0-1.6-0.1-1.6-0.6c0-0.4,0.6-0.7,1.4-0.9
		c2.3-0.6,2.9-1,3.1-3.5c0.1-1.9,0.4-5.4,0.4-11.1c0-5.4,0-7.5,0-8.9c-0.1-1.7-0.5-2.6-2.4-2.9c-1-0.2-1.5-0.4-1.5-0.8
		s0.8-0.7,1.4-0.7c2.2,0,5.9,0.1,8.3,0.1L438.1,148.1L438.1,148.1z"/>
</g>
<g>
	<path class="st1" d="M232.2,4.9c2.4,0,3.2,0.6,3.2,1.2c0,1-1.4,1.6-3.2,2c-9.5,1.6-9.3,7.5-9.3,16.8c-0.4,18.6-0.4,44.2-0.2,55.5
		c0.2,15.3,4,26.8,10.5,33.5c7.5,8.1,18.6,10.7,27.5,10.7c21.6,0,35.4-11.3,36.8-50.7c0.2-7.1,0.4-16.4,0.4-22.6
		c0-37.4-1.8-39.8-7.1-42c-1.6-0.4-3.6-1-5.1-1.2c-1.8-0.2-3.4-1.2-3.4-1.8c0-1,1.2-1.4,3.4-1.4c4.6,0,7.7,0.6,14.1,0.6
		c4.4,0,10.3-0.6,15.3-0.6c2.4,0,3.6,0.4,3.6,1c0,1-1,1.6-4.2,2.2c-7.9,1.4-8.5,5.3-9.1,14.1c-0.8,11.7-1,37.4-1.8,48.7
		c-1,19.6-3.2,37-14.5,48.9c-10.3,10.9-25.4,12.9-35.1,12.9c-10.7,0-23.4-3-31.3-9.1c-12.1-9.5-16.4-21-17-46.2
		c-0.6-15.6-0.2-45-1-56.7c-0.6-9.7-1-11.1-8.9-13.3c-1.4-0.4-2.6-1-2.6-1.8c0-1,1.8-1,3.6-1c5.1,0,11.1,0.8,18.6,0.8
		C221.9,5.5,227.2,4.9,232.2,4.9z"/>
	<path class="st1" d="M412.3,11.5c8.3,6.1,12.3,14.5,12.3,24c0,12.7-6.2,19.3-10.7,22.7c-3,2.3-7.6,5-10.4,6
		c-6.2,2.1-10.1,2.8-9.3,4.8c3.8,7.3,13.1,23.5,19.8,33.8c6.1,8.9,10.3,14.1,14.5,18.4c5.7,5.9,10.7,7.1,14.7,7.3
		c1.2,0,2.4,0.6,2.4,1.2s-0.8,1.2-2.2,1.8c-1.6,0.6-5.5,0.8-9.7,0.8c-12.7,0-22-4.8-29.9-15.7c-8.1-10.7-21.2-33.9-26-41.7
		c-3-4-5.2-4.9-7.7-5.3c-0.9-0.2-11.2-0.4-12.6-0.4c-1.1,0-2.4,0-4,0c-0.8,0-1.6,1-1.6,2c-0.4,2.8-0.4,24.4-0.2,31.5
		c0,11.3,0.8,17.4,1.6,19.6c0.6,2,2.2,4.4,9.1,5.5c2,0.6,3,1.2,3,2s-1.6,1.4-3.8,1.4c-3.2,0-10.5-1-18-1c-7.1,0-15.1,1-18.6,1
		c-2.2,0-3.6-0.4-3.6-1.4c0-0.8,1.2-1.4,3.8-2c6.5-1.2,8.5-3.2,9.1-11.1c0.6-11.3,1-28.6,1-51c0-27.5-0.8-41-1.2-48
		c-0.4-5.7-0.4-8.7-8.7-10.1c-1.8-0.4-3.6-0.8-3.6-1.8c0-0.8,1.4-1.2,3.6-1.2c2.8,0,9.1,0.6,15.9,0.6c5.6,0,9.8,0,13.1-0.1
		c0.7,0,6.4,0,7,0c9.6-0.3,15-0.9,24.3-0.9C397.4,4.3,405.7,6.9,412.3,11.5z M353.3,10c-0.6,0.5-1.3,1.7-1.5,5.3
		c-0.2,3.4-0.4,42.7-0.4,46.1c0,2.4,0.6,3.4,1.6,3.4c1,0.4,3.2,0.4,4.4,0.4c0.9,0,10.8,0,12.7,0c3.1,0,7.1,0,10.9-0.4
		c6.1-0.7,12.3-2.6,14.5-4.1c5.6-3.8,11.5-11.3,11.5-22.2c0-9.7-2.4-16.4-7.7-21.7c-5.9-5.9-12.7-8.1-21.6-8.1c-0.2,0-2.7,0-5.2,0
		s-14.2,0-14.4,0C355.4,8.6,354.1,9.4,353.3,10z"/>
</g>
<g>
	<path class="st2" d="M93,181.8l-4.2-1.9C64.9,169,46.6,153,34.3,132.3c-3.1-5.2-5.7-10.7-8-16.7c-6.1,0.5-11,1-15.3,1.5l-5.3,0.8
		l0.2-5.4c0.1-4.5,0.7-9.6,1.6-13.9C6.3,96.2,3.1,89.4,2,86.7l-2-5.3l7.6-1.1h0.3c1.9-0.3,4.1-0.6,6.5-0.9v-5.1l3.9-0.6
		c0.6-0.1,1.1-0.2,1.7-0.2V23.3c-1.1-2.4-6.1-13.5-6.1-13.7l-1.1-2.4l6.3-1.1l0,0C20.4,5.9,56.4,0,95.1,0c39.6,0,75.7,6,76,6.1
		l6.2,1.1l-1.1,2.4c-0.1,0.1-5,11.3-6.1,13.7v50.2c0.5,0.1,1,0.1,1.5,0.2l3.9,0.6v5.1c2.2,0.3,4.3,0.6,6.1,0.9l8.3,1.2l-2,5.3
		c-1,2.6-4.1,9.1-5.4,11.9l0,0c0.8,4.4,1.4,9.4,1.5,13.9l0.2,5.4l-5.3-0.8c-1.5-0.2-3.2-0.4-4.9-0.7c-2.9-0.4-6.2-1-10-1.4
		c-1.6,4.3-4,10-8.3,17.3c-12.3,20.7-30.6,36.7-54.5,47.6l-6.1,2.8L93,181.8z"/>
	<path id="blue_shield_4_" class="st1" d="M168,80.9V22.8c0.5-1,6.3-14.1,6.3-14.1l-3.7-0.6C170.2,8,134.1,2,94.9,2S19.6,8,19.2,8.1
		l-3.7,0.6c0,0,5.8,13,6.3,14.1v58.1c0,8.8,2.1,22.9,5.8,32.8c2,5.5,4.7,11.4,8.3,17.5C48,151.5,66,167.3,89.5,178l4.2,1.9l1.3,0.5
		l5.3-2.4c23.5-10.7,41.6-26.4,53.6-46.8c3.6-6.1,6.3-12.1,8.3-17.6l0,0C166,102.6,168,87.2,168,80.9z"/>
	<g id="yellow_lines_2_">
		<path class="st3" d="M93.7,169.2l0.4,0.2l1,0.5l1.4-0.7l0,0c21.8-9.9,38.4-24.4,49.4-43c4-6.7,6.9-13.6,8.8-19.4
			c-0.8-0.1-1.6-0.1-2.4-0.2c-1.8,5.5-4.6,12-8.3,18.4c-10.8,18.2-27.1,32.4-48.4,42.1c0,0-0.3,0.1-0.5,0.2
			c-0.1-0.1-0.5-0.2-0.5-0.2l0,0c-21.3-9.7-37.5-23.8-48.3-42c-3.7-6.3-6.5-13-8.4-18.4c-0.8,0.1-1.6,0.1-2.4,0.2
			c1.9,5.8,4.9,12.7,8.8,19.4C55.3,144.9,71.9,159.3,93.7,169.2z"/>
		<path class="st3" d="M160.1,20.5v53.8c0.8,0.1,1.6,0.2,2.3,0.3V21.2c0,0,2.2-4.7,3.7-8c-7.9-1.2-27.5-3.8-50.7-4.9v2.3
			c20.3,1,37.8,3.1,47.3,4.4C161.6,17.4,160.1,20.5,160.1,20.5z"/>
		<path class="st3" d="M32.9,18c9.9-1.3,24.9-2.9,41.9-3.7V12c-16.5,0.8-31.4,2.4-42.2,3.8l-3.1,0.4c0,0,1.7,3.6,2,4.2v53.8
			c0.8-0.1,1.5-0.2,2.3-0.2V19.8C33.8,19.7,33.2,18.7,32.9,18z"/>
		<path class="st3" d="M27.8,74.5c0.7-0.1,1.5-0.2,2.3-0.3V20.7c0,0-1.6-3.3-2.7-5.7c9.6-1.3,27.1-3.5,47.3-4.4V8.3
			C51.6,9.4,31.9,12,24,13.2c1.5,3.3,3.7,8.3,3.7,8.3L27.8,74.5L27.8,74.5z"/>
		<path class="st3" d="M156.1,107c-1.9,6-4.9,13-9,19.9c-11.2,18.9-28,33.5-50,43.5c0,0-1.2,0.5-2.1,0.9c-0.9-0.4-2-0.9-2-0.9
			c-22-10-38.8-24.6-50-43.5c-4.1-6.8-7.1-14.1-9-20c-0.8,0.1-1.6,0.2-2.4,0.2c2,6.2,5.1,13.7,9.4,21c11.4,19.3,28.6,34.2,51,44.4
			c0,0,1.7,0.8,2.9,1.4c1.2-0.6,3-1.4,3-1.4c22.4-10.2,39.6-25.2,51.1-44.4c4.3-7.3,7.4-14.7,9.3-20.9
			C157.7,107.2,156.9,107.1,156.1,107z"/>
		<path class="st3" d="M156.4,19.4v54.5c0.8,0.1,1.6,0.2,2.3,0.2V20c0.3-0.6,2-3.9,2-3.9l-3.1-0.4c-10.8-1.4-25.7-3-42.2-3.8v2.3
			c17,0.8,32,2.5,41.9,3.7C156.9,18.6,156.4,19.4,156.4,19.4z"/>
	</g>
	<path class="st3" d="M94.8,101.2c-15,0-27.2,12.2-27.2,27.3c0,15.1,12.2,27.3,27.2,27.3s27.2-12.2,27.2-27.3
		S109.8,101.2,94.8,101.2z M94.9,152.9c-13.4,0-24.2-10.9-24.2-24.3s10.8-24.3,24.2-24.3s24.2,10.9,24.2,24.3
		S108.2,152.9,94.9,152.9z"/>

		<linearGradient id="SVGID_1_" gradientUnits="userSpaceOnUse" x1="40.5285" y1="111.7841" x2="150.0401" y2="111.7841" gradientTransform="matrix(1 0 0 -1 0 226.4899)">
		<stop  offset="1.226990e-02" style="stop-color:#FFFFFF;stop-opacity:0.55"/>
		<stop  offset="0.5031" style="stop-color:#FFFFFF"/>
		<stop  offset="1" style="stop-color:#FFFFFF;stop-opacity:0.79"/>
		<stop  offset="1" style="stop-color:#FFFFFF;stop-opacity:0.55"/>
	</linearGradient>
	<path class="st4" d="M101.6,114.2c-0.1,0-0.2-0.1-0.2-0.1c-0.5-0.1-0.9,0.1-1,0.4s0.3,0.7,0.8,0.8c0.4,0.1,0.9,0,1-0.3
		c0.3,0.1,0.5,0.2,0.5,0.2C102.3,114.6,101.9,114.3,101.6,114.2z"/>
	<path class="st2" d="M94.9,105.4c-12.7,0-23,10.3-23,23.1c0,12.8,10.3,23.1,23,23.1s23-10.3,23-23.1
		C117.9,115.8,107.6,105.4,94.9,105.4z M92,109.4c0,0,2.1-0.5,3.1-1l2.5-0.3c0.4,0.1,0.6,0.2,0.8,0.5c0.5,0.8-0.6,2.6-0.8,3.5
		c0,0.1,0,0.1,0,0.2c-0.4,0-0.9,0-1.5,0H96h-0.3c-0.4,0-0.4,0-1.3-0.1l-1.8-0.2c-0.1-0.4-0.2-0.7-0.3-1C92,110.4,91.7,110,92,109.4z
		 M99.6,144.8c-0.9,0.6-2.1,1-3.3,1c0,0.2,0,0.4,0,0.5c0,0.8-0.2,2.3-1.1,2.7c-0.4-0.2-0.6-0.1-0.9-0.4c-0.4-0.4-0.3-0.9-0.4-1.4
		c-0.1-0.6-0.1-1-0.1-1.6c-0.7-0.2-1.5-0.5-2.1-0.8c-1.4-0.8-2-1.6-2.2-2.7c-0.2-1.5,0.9-2.5,1.3-2.4c0.6,0.2-0.5,1.1,0,2.3
		c0.5,1.1,1.9,1.4,2.8,1.6c0-0.2,0-0.4-0.1-0.6c0-0.9-0.2-1-0.2-1.9c-0.1-0.8,0.1-1.4,0.4-2l0,0c0.2-0.5,0-1.2-0.1-1.7
		c-0.1-0.7-0.3-1.4-0.3-2.2c0-0.1,0-0.2,0-0.3c0-0.4-0.1-0.7-0.1-1c0.6,0,1.4-0.1,2.5,0h0.1H97c0.1,0.1,0.2,0.3,0.3,0.4
		c0.1,0.5,0.1,1.1,0,1.7s-0.2,1.1-0.3,1.4c-0.1,1-0.2,1.6-0.2,2.3c-0.1,0.8-0.1,1.5-0.2,2.6c0,0.3-0.1,0.7-0.1,1
		c0.6-0.2,1.2-0.5,1.8-0.9c0.8-0.6,0.9-1.7,0.3-2.2c0,0,0,0-0.1-0.1s-0.3-0.3-0.6-0.4l0.2-2.2l0.2-1c0.2,0.1,0.4,0.1,0.6,0.2
		c1.5,0.5,2.7,1.3,3,3.3C102.2,141.9,101.5,143.4,99.6,144.8z M105.3,128.7c-1,2.3-2.4,3-3.2,3.4c-0.7,0.3-1.4,0.5-2.2,0.6
		c-0.8,0.1-1.6,0.2-2.6,0.2c-0.5,0-1,0-1.5,0c-0.2,0-2.6-0.2-4,0.2c-0.7,0.2-1.2,0.5-1.1,1c0.1,0.2,0.3,0.4,0.7,0.6
		c0.1,0.1,0.3,0.1,0.4,0.2c0.1,0,0.1,0.1,0.2,0.1v0.2v0.3c0,0.5,0.1,1,0.2,1.4l0.1,0.8l0.1,0.5c0,0.2,0.1,0.4,0.1,0.5
		c-0.3-0.1-0.5-0.1-0.8-0.2c-0.2-0.1-0.4-0.1-0.6-0.2s-0.3-0.1-0.5-0.2c-2.5-0.9-5-2.6-4-5.6c0.3-0.8,1.5-3,4.6-3.5
		c0.3,0,0.7-0.1,1-0.1c0.9-0.1,1.9-0.2,2.9-0.2c0.8,0,1.6-0.1,2.4-0.1c1.1-0.1,2-0.1,2.4-0.4c0.7-0.5,1.3-1.6,0.2-2.9
		c-0.2-0.3-0.5-0.4-0.7-0.5s-0.4,0-0.6,0c0-0.2,0.1-0.5,0.1-0.6c0-0.2,0-0.3-0.1-0.5c-0.2-0.5-0.5-0.8-0.7-1c0,0-0.1-0.1-0.2-0.2
		c0-0.1,0-0.1,0-0.3c0-0.3,0-0.7,0.1-0.9V121c0-0.3,0.1-0.7,0.1-1.1c0.4,0,0.8,0,1.1,0c0.2,0,0.3,0,0.5,0c1.2,0.2,3.8,0.9,5,3.3
		C106,125.7,105.9,127.4,105.3,128.7z M97.2,123.2c0.3,0.4,0.5,0.5,0.7,0.9c0,0.1-0.1,0.6-0.1,1.1c-0.1,0.5-0.3,1.1-0.3,1.3
		c0,0.3,0,0.6-0.1,1h-0.5l-1.6,0.1l0,0c-0.7,0-1.3,0.1-1.9,0.1c0-0.2,0-0.4-0.1-0.6c0-0.1,0-0.1,0-0.2c-0.1-1.3-0.2-1.7-0.5-3
		c-0.2-0.6-0.3-1.1-0.4-1.7c0-0.2,0-0.4,0-0.5c0.1-0.3,0.2-0.4,0.5-0.8c0.4-0.7,0.4-1.9,0.5-2.8c0.7,0,1.4,0.1,1.7,0.1
		c0.3,0,0.9,0.3,1.4,0.5l0.8,0.3v0.8c0,0.4,0,0.8-0.1,1.2C96.9,121.6,96.7,122.7,97.2,123.2z M106.8,117.2c-0.3,0.3-3.5,1-5,1.1
		s-3.4-0.2-3.7-0.3c-0.1,0-0.2-0.1-0.4-0.1c-0.8-0.3-2-0.8-2.6-0.9c-0.4-0.1-1.5-0.2-2.6-0.1c-0.7,0.1-1.5,0.2-2.1,0.5
		c-1.4,0.6-2,1.2-2.3,2.4c-0.4,1.6,1.2,2.4,2,2.5h0.1c0.3,0,0.6,0,1-0.1c0,0,0,0.1,0,0.2c0.1,0.6,0.3,1.1,0.4,1.6l0.1,0.2
		c0.3,1.2,0.4,1.5,0.5,2.6c-0.2,0-0.3,0.1-0.5,0.1c-0.5,0-1,0.1-1.5,0.1c-1.9,0-3.8-0.3-5.4-1.6c-1-0.8-1.5-2-1.8-2.9
		c-0.3-0.8-1.2-4.5,2.7-7.8c0.8-0.7,3.1-2.1,6.4-1.8c0.1,0,0.2,0,0.3,0c3.4,0.4,2.6,0.4,3.6,0.4c0.7,0,1.4,0.1,2,0
		c0.2,0,0.5-0.1,0.6-0.1c0.7-0.2,1.8-0.7,3.2-0.4c1.4,0.3,1.2,0.4,1.5,0.6s1.1,0.5,1.3,0.6c0.3,0.1,2,0.8,2.2,0.9s0.3,0.4,0.3,0.6
		C107.1,115.8,107.1,116.9,106.8,117.2z"/>
	<g id="date_3_">
		<path class="st3" d="M77.6,18.8c0.4-0.1,0.7-0.3,0.9-0.4c0.3-0.1,0.5-0.2,0.6-0.4c0.1-0.1,0.2-0.2,0.3-0.3c0-0.1,0.1-0.2,0.1-0.5
			s0-0.6,0-1s0-1,0-1.6V14v-0.7v-0.7v-0.7c0-0.6,0-1.1,0-1.6c0-0.4,0-0.8,0-1s-0.1-0.4-0.1-0.5s-0.1-0.2-0.3-0.3
			c-0.1-0.1-0.3-0.2-0.6-0.3c-0.3-0.1-0.6-0.2-0.9-0.3V7.6c0.3,0,0.6,0,0.9,0s0.6-0.1,0.9-0.1s0.6-0.1,0.8-0.1
			c0.3,0,0.6-0.1,0.8-0.1c0.3,0,0.8-0.2,0.8-0.1c0,0,0,0.3,0,0.5s0,0.4,0,0.7s0,0.6,0,0.9c0,0.3,0,0.7,0,1.1c0,0.4,0,0.8,0,1.3v1.4
			v0.7v0.6c0,0.6,0,1.1,0,1.6c0,0.4,0,0.8,0,1c0,0.3,0,0.4,0.1,0.5s0.2,0.2,0.3,0.3c0.1,0.1,0.3,0.2,0.6,0.3
			c0.2,0.1,0.5,0.3,0.9,0.4v0.3c-0.3,0-0.6-0.1-0.9-0.1s-0.6,0-0.8-0.1h-0.7c-0.2,0-0.4,0-0.6,0s-0.4,0-0.6,0s-0.5,0-0.7,0
			c-0.3,0-0.5,0-0.8,0s-0.6,0.1-0.9,0.1L77.6,18.8L77.6,18.8z"/>
		<path class="st3" d="M86,10.9c0-0.3,0.1-0.7,0.1-1c0.1-0.3,0.2-0.6,0.4-0.9c0.2-0.3,0.4-0.5,0.6-0.8c0.2-0.2,0.5-0.4,0.8-0.6
			c0.3-0.2,0.6-0.3,1-0.4c0.3-0.1,0.7-0.1,1.1-0.1s0.7,0,1,0.1s0.6,0.2,0.8,0.4C92,7.8,92.2,8,92.4,8.2c0.2,0.2,0.3,0.5,0.4,0.8
			s0.1,0.6,0.1,0.9c0,0.3,0,0.6-0.1,0.9c-0.1,0.3-0.2,0.6-0.3,0.8c-0.2,0.3-0.3,0.5-0.6,0.8c-0.2,0.2-0.8,0.7-0.8,0.7
			c0,0.1,0.6,0.4,0.8,0.6c0.3,0.2,0.5,0.4,0.6,0.6c0.2,0.2,0.3,0.5,0.5,0.7c0.1,0.2,0.2,0.5,0.3,0.7c0.1,0.3,0.1,0.5,0.1,0.8
			c0,0.4,0,0.7-0.1,1s-0.2,0.6-0.3,0.9c-0.2,0.3-0.4,0.5-0.6,0.8c-0.2,0.2-0.5,0.5-0.8,0.7s-0.5,0.4-0.8,0.5s-0.6,0.2-0.9,0.3
			c-0.3,0-0.6,0.1-1,0.1c-0.3,0-0.7,0-0.9-0.1c-0.3-0.1-0.6-0.2-0.8-0.3c-0.2-0.1-0.5-0.3-0.7-0.5s-0.4-0.4-0.5-0.6
			c-0.1-0.2-0.2-0.5-0.3-0.8c-0.1-0.3-0.1-0.6-0.1-0.9c0-0.3,0-0.6,0.1-0.8c0.1-0.3,0.1-0.5,0.3-0.8c0.1-0.2,0.3-0.5,0.5-0.7
			s0.4-0.4,0.7-0.6c0.3-0.2,0.9-0.6,0.9-0.6c0-0.1-0.6-0.5-0.9-0.7c-0.3-0.3-0.4-0.5-0.6-0.8s-0.3-0.5-0.4-0.9
			C86.1,11.5,86,11.2,86,10.9 M87.7,17.3c0,0.4,0.1,0.8,0.1,1.1c0.1,0.3,0.2,0.6,0.4,0.8c0.2,0.2,0.4,0.4,0.6,0.5s0.5,0.2,0.7,0.2
			c0.3,0,0.6-0.1,0.8-0.3c0.2-0.2,0.4-0.4,0.6-0.7c0.1-0.3,0.2-0.7,0.2-1.1c0-0.3-0.1-0.6-0.1-0.8c-0.1-0.3-0.2-0.5-0.4-0.7
			c-0.2-0.2-0.4-0.5-0.7-0.7c-0.3-0.2-0.9-0.8-1-0.8s-0.4,0.4-0.6,0.7c-0.2,0.2-0.3,0.5-0.4,0.8C87.7,16.6,87.7,16.9,87.7,17.3
			 M90.9,10.4c0-0.4-0.1-0.8-0.2-1.1s-0.3-0.6-0.5-0.8s-0.5-0.3-0.8-0.3s-0.5,0.1-0.7,0.2c-0.2,0.1-0.4,0.3-0.5,0.6
			C88.1,9.2,88,9.5,88,9.8c0,0.2,0,0.5,0.1,0.7s0.2,0.5,0.4,0.7c0.2,0.2,0.4,0.4,0.7,0.7c0.3,0.2,0.8,0.7,0.9,0.7s0.3-0.4,0.4-0.6
			c0.1-0.2,0.2-0.4,0.3-0.7C90.9,11,90.9,10.7,90.9,10.4"/>
		<path class="st3" d="M95.4,20c0.4-0.1,0.8-0.2,1.1-0.3c0.3-0.1,0.7-0.3,0.9-0.4c0.3-0.2,0.6-0.4,0.8-0.5c0.2-0.2,0.4-0.4,0.6-0.6
			c0.2-0.2,0.3-0.5,0.5-0.7c0.1-0.3,0.2-0.5,0.3-0.8c0.1-0.3,0.1-0.6,0.1-0.8c0-0.3,0-0.6-0.1-0.9c-0.1-0.3-0.2-0.5-0.3-0.7
			c-0.2-0.2-0.3-0.4-0.6-0.5c-0.2-0.1-0.5-0.3-0.8-0.3c-0.3-0.1-0.6-0.1-1-0.1c-0.1,0-0.3,0-0.5,0s-0.7,0.1-0.7,0.1
			c0-0.1,0.1-0.8,0.2-1.1c0.1-0.4,0.1-0.8,0.2-1.1c0.1-0.4,0.1-0.7,0.2-1c0-0.3,0.1-0.7,0.1-1s0.1-0.6,0.1-0.9
			c0-0.3,0.1-0.9,0.1-0.9c0.1,0,0.4,0.1,0.7,0.1c0.3,0,0.5,0,0.8,0s0.6,0,1,0h0.9c0.3,0,0.5,0,0.8,0s0.5,0,0.8,0s0.7-0.1,0.8,0
			c0,0,0,0.5-0.1,0.7c0,0.3,0,0.5,0,0.8c0,0.1,0,0.3,0,0.5c0,0.3,0,0.6,0,1h-0.1c-0.1-0.3-0.3-0.4-0.5-0.5s-0.3-0.1-0.6-0.1h-0.4
			h-0.8c-0.3,0-0.5,0-0.7,0s-0.5,0-0.7,0h-0.8c-0.1,0.4-0.1,0.6-0.1,0.9c0,0.3-0.1,0.5-0.1,0.9c0.3,0,0.5,0,0.8,0
			c0.4,0,0.8,0,1.1,0.1c0.4,0.1,0.7,0.1,1,0.2c0.3,0.1,0.5,0.2,0.8,0.4c0.2,0.1,0.4,0.3,0.6,0.5s0.3,0.4,0.4,0.7s0.2,0.5,0.3,0.9
			c0.1,0.3,0.1,0.7,0.1,1s0,0.6-0.1,0.9c-0.1,0.3-0.1,0.6-0.2,0.8c-0.1,0.3-0.2,0.5-0.4,0.8c-0.1,0.2-0.3,0.5-0.5,0.7
			s-0.4,0.4-0.6,0.6c-0.2,0.2-0.5,0.4-0.8,0.6c-0.3,0.2-0.6,0.3-0.9,0.5c-0.3,0.1-0.7,0.3-1,0.4c-0.4,0.1-0.7,0.2-1.1,0.3
			c-0.4,0-0.8,0.1-1.2,0.1V20H95.4z"/>
		<path class="st3" d="M104.3,13.6c0-0.4,0-0.7,0.1-1c0-0.3,0.1-0.7,0.2-1s0.1-0.6,0.2-0.9c0.1-0.3,0.2-0.6,0.4-0.9
			c0.1-0.3,0.3-0.6,0.5-0.9c0.2-0.3,0.4-0.5,0.6-0.7s0.4-0.4,0.6-0.5s0.5-0.2,0.7-0.3s0.5-0.1,0.7-0.1c0.3,0,0.6,0.1,0.8,0.1
			c0.3,0.1,0.5,0.2,0.8,0.3c0.2,0.1,0.5,0.3,0.7,0.5s0.4,0.4,0.6,0.7c0.2,0.2,0.3,0.5,0.5,0.8c0.1,0.3,0.3,0.6,0.4,1
			c0.1,0.3,0.2,0.7,0.2,1.1c0.1,0.4,0.1,0.8,0.1,1.2c0,0.5,0,0.9-0.1,1.4s-0.1,0.9-0.2,1.3c-0.1,0.4-0.2,0.7-0.4,1.1
			c-0.1,0.3-0.3,0.6-0.5,0.9c-0.2,0.3-0.4,0.5-0.6,0.7s-0.4,0.4-0.7,0.5c-0.2,0.2-0.5,0.3-0.8,0.3c-0.3,0.1-0.5,0.1-0.8,0.1
			s-0.6,0-0.8-0.1c-0.3-0.1-0.5-0.2-0.8-0.3c-0.2-0.1-0.4-0.3-0.7-0.5c-0.2-0.2-0.4-0.4-0.6-0.7s-0.3-0.5-0.5-0.8
			c-0.1-0.3-0.3-0.6-0.4-1c-0.1-0.3-0.2-0.7-0.2-1.1C104.3,14.4,104.3,14,104.3,13.6 M109.8,14.2c0-0.6,0-1.1,0-1.5
			c0-0.5-0.1-0.9-0.1-1.3c-0.1-0.4-0.1-0.8-0.2-1.1s-0.2-0.6-0.2-0.9c-0.1-0.2-0.2-0.4-0.3-0.6c-0.1-0.2-0.2-0.3-0.4-0.4
			c-0.1-0.1-0.3-0.1-0.4-0.1c-0.2,0-0.4,0-0.5,0.2c-0.1,0.1-0.3,0.3-0.4,0.5s-0.2,0.5-0.3,0.8c-0.1,0.3-0.1,0.7-0.2,1.2
			c0,0.4-0.1,1-0.1,1.5c0,0.6,0,1.1,0,1.6s0.1,0.9,0.1,1.3c0.1,0.4,0.1,0.8,0.2,1.1s0.1,0.6,0.2,0.9c0.1,0.2,0.2,0.4,0.3,0.6
			c0.1,0.2,0.3,0.3,0.4,0.4c0.2,0.1,0.3,0.1,0.4,0.1c0.2,0,0.4-0.1,0.5-0.2c0.2-0.1,0.3-0.3,0.4-0.5s0.2-0.5,0.3-0.8
			c0.1-0.3,0.1-0.7,0.2-1.2S109.8,14.8,109.8,14.2"/>
	</g>
	<path class="st3" d="M65.7,21c-15,0-27.2,12.2-27.2,27.3s12.2,27.3,27.2,27.3c15,0,27.2-12.2,27.2-27.3C92.8,33.2,80.7,21,65.7,21z
		 M65.7,72.7c-13.4,0-24.2-10.9-24.2-24.3c0-13.4,10.8-24.3,24.2-24.3c13.4,0,24.2,10.9,24.2,24.3S79.1,72.7,65.7,72.7z"/>
	<path class="st3" d="M124.6,21c-15,0-27.2,12.2-27.2,27.3s12.2,27.3,27.2,27.3s27.2-12.2,27.2-27.3C151.7,33.2,139.6,21,124.6,21z
		 M124.6,72.7c-13.4,0-24.2-10.9-24.2-24.3c0-13.4,10.8-24.3,24.2-24.3c13.4,0,24.2,10.9,24.2,24.3
		C148.8,61.8,137.9,72.7,124.6,72.7z"/>
	<g>
		<g>
			<path class="st2" d="M62.9,33.9c-0.9,0-1.1,0.1-1.6,0.3c-0.7,0.3-1.6,0.7-3.5,0.9c-1.6,0.2-3.2,0.1-4.5-0.1v21.6
				c1.2,0.2,2.7,0.3,4.2,0.1c3.2-0.3,2.8-1.2,5.3-1.2c0.7,0,1.2,0.1,1.7,0.2V34.3c0,0-0.4-0.2-1.1-0.3C63.4,34,63.2,33.9,62.9,33.9z
				 M65.7,25.2c-12.7,0-23,10.3-23,23.1s10.3,23.1,23,23.1s23-10.3,23-23.1C88.7,35.6,78.4,25.2,65.7,25.2z M84.5,53.3
				c0.5,0,0.8,0.4,0.8,0.9v1.6c0,0.5-0.4,0.9-0.8,0.8L83,56.5v4.4c0,0.5-0.4,0.9-0.8,0.8L68.6,61c-0.6,0.2-1.7,0.3-2.9,0.3
				s-2.2-0.1-2.9-0.3l-13.5,0.7c-0.4,0-0.8-0.4-0.8-0.8v-4.4l-1.6,0.1c-0.5,0-0.8-0.3-0.8-0.8v-1.6c0-0.5,0.4-0.9,0.8-0.9l1.6-0.1
				V44l-1.6,0.1c-0.5,0-0.8-0.4-0.8-0.9v-1.6c0-0.5,0.4-0.9,0.8-0.9l1.6-0.1v-4.7c0-0.5,0.4-0.9,0.8-0.9l2.1-0.1
				c-0.3,0.6-0.6,1.1-1,1.5l-0.1,22.7c0.8-1,1.7-3.2,1.7-3.2V33.3c0,0,3,0.9,6,0.6c3.1-0.3,2.6-1.1,5-1.2c1.7,0,2.6,0.7,2.6,0.7
				s0.9-0.7,2.6-0.7c2.4,0,2,0.8,5,1.2c3.1,0.4,6.1-0.6,6.1-0.6v22.6c0,0,0.9,2.2,1.7,3.2l0-22.8c-0.3-0.4-0.7-1-0.9-1.5l2.1,0.1
				c0.5,0,0.8,0.5,0.8,0.9v4.7l1.5,0.1c0.5,0,0.8,0.4,0.8,0.9v1.6c0,0.5-0.4,0.9-0.8,0.9L83,43.9v9.2L84.5,53.3z M73.5,35.1
				c-1.9-0.2-2.8-0.6-3.5-0.9c-0.5-0.2-0.7-0.3-1.6-0.3c-0.2,0-0.4,0-0.6,0c-0.7,0.1-1.1,0.3-1.1,0.3v21.5c0.4-0.1,1-0.2,1.7-0.2
				c2.5,0,2.1,0.9,5.3,1.2c1.6,0.2,3.1,0,4.2-0.1V35C76.7,35.2,75.1,35.3,73.5,35.1z"/>
		</g>
	</g>
	<g>
		<g>
			<path class="st2" d="M124.6,25.2c-12.7,0-23,10.3-23,23.1s10.3,23.1,23,23.1s23-10.3,23-23.1C147.6,35.6,137.3,25.2,124.6,25.2z
				 M137.8,59.5c-0.6,2.2-2.1,6.3-3,7.5h-20.6c-0.8-1.3-2.4-5.3-2.9-7.5c-0.2-0.8-2-7.5,0.4-11.9c1.9-3.5,2.3-6.3,2.3-7.8v-4.6h-0.8
				v1c-0.3,0.2-0.5,0.3-0.9,0.3c-0.9,0-1.6-1-1.6-2.2s0.7-2.2,1.6-2.2c0.3,0,0.6,0.1,0.9,0.3v1h0.8v-4.1h4.2v4.2h2.3v-0.2
				c0-0.3,0.3-0.6,0.6-0.6c0.3,0,0.6,0.3,0.6,0.6v0.2h2.3v-0.2c0-0.3,0.3-0.6,0.6-0.6c0.3,0,0.6,0.3,0.6,0.6v0.2h2.3v-0.2
				c0-0.3,0.3-0.6,0.6-0.6c0.3,0,0.6,0.3,0.6,0.6v0.2h2.3v-4.2h4.2v4.2h0.8v-1c0.2-0.2,0.5-0.3,0.8-0.3c0.9,0,1.6,1,1.6,2.2
				s-0.7,2.2-1.6,2.2c-0.3,0-0.6-0.1-0.8-0.3v-1h-0.8v4.6c0,1.4,0.4,4.3,2.3,7.8C139.8,52,138,58.7,137.8,59.5z M125.1,61.9
				c0.8,0,1.6-0.1,2.3-0.3v-3.9c-0.7-0.1-1.5-0.2-2.3-0.2V61.9z M128.6,58v3.3c1.3-0.4,2.1-1,2.1-1.6C130.7,59,129.9,58.4,128.6,58z
				 M125.1,55.8c0.8,0,1.6-0.2,2.3-0.3V35.2h-2.3V55.8z M130.9,45.8V35.3h-2.3v19.9c2.6-1,4.4-3,4.4-5.3
				C133,48.2,132.2,46.8,130.9,45.8z M121.7,61.6c0.7,0.1,1.4,0.2,2.3,0.2v-4.4c-0.8,0-1.6,0.1-2.3,0.3V61.6z M121.7,55.5
				c0.7,0.2,1.5,0.3,2.3,0.3V35.2h-2.3V55.5z M118.2,45.8c-1.3,1.1-2.1,2.5-2.1,4c0,2.3,1.8,4.3,4.4,5.3V35.3h-2.3V45.8z
				 M118.5,59.7c0,0.6,0.8,1.2,2,1.6v-3.2C119.3,58.4,118.5,59,118.5,59.7z"/>
		</g>
	</g>
	<path class="st1" d="M187,83.1l-5.1-0.7c-2.5-0.4-5.3-0.8-8.6-1.2V76l-2.1-0.3c-13.8-2-38.2-4.3-76.4-4.3s-62.6,2.4-76.4,4.3
		L16.2,76v5.2c-3.3,0.4-6.1,0.9-8.6,1.2l-5.1,0.7L3.6,86c1,2.8,4.6,10,5.7,12.3c-0.9,4.1-1.5,9.3-1.7,14.2l-0.1,3l2.9-0.4
		c4.3-0.6,9.5-1.1,17-1.6c0,0-0.4-1.1-0.9-2.7c-0.4-1.4-0.9-3-0.9-3l2.9-0.3c14-1.6,35.6-3.1,66.2-3.1c31.1,0,52.9,1.6,66.8,3.2
		l2.3,0.3l-0.6,2.4l-0.8,2.6c6.8,0.7,12.3,1.7,16.5,2.3l2.9,0.4l-0.1-3c-0.2-4.9-0.8-10.1-1.6-14.2c1.1-2.3,4.6-9.6,5.7-12.3
		L187,83.1z"/>
	<g>
		<path class="st3" d="M26.6,110.8c-2.8-8.8-4.5-19.9-4.7-27.8c-6.3,0.8-11.9,1.6-15.8,2.2C7.3,88.3,12,98,12,98
			c-0.9,4-1.5,9.5-1.7,14.7C14.1,112.2,20,111.5,26.6,110.8z"/>
		<path class="st3" d="M183.6,85.1c-3.9-0.6-9.3-1.4-15.6-2.2c-0.3,6.5-2,18.3-4.8,27.9c6.6,0.7,12.4,1.3,16.3,1.8
			c-0.2-5.2-0.9-10.7-1.7-14.7C177.7,98,182.4,88.3,183.6,85.1z"/>
	</g>
	<path class="st1" d="M20.2,108.5l-0.6-2.1c-2.9-10.7-3.3-19.1-3.3-23.2v-7.3l2.2-0.3c13.7-2,38.2-4.3,76.4-4.3
		c38.3,0,62.7,2.4,76.4,4.3l2.2,0.3v7.3c0,4.1-0.4,12.5-3.3,23.2l-0.6,2.1l-2.2-0.3c-13.2-1.8-36.4-3.9-72.5-3.9s-59.3,2.1-72.5,3.9
		L20.2,108.5z M94.8,99.3c34.4,0,57.3,1.9,70.9,3.6c2.2-9.1,2.6-16.2,2.6-19.8v-2.9c-13.9-1.9-37.5-4-73.5-4s-59.6,2.1-73.5,4v2.9
		c0,3.6,0.4,10.7,2.6,19.8C37.6,101.2,60.4,99.3,94.8,99.3z"/>
	<path class="st1" d="M94.8,73.7c-38.3,0-62.7,2.4-76,4.3v5.1c0,4.2,0.5,12.3,3.2,22.6c13.9-1.9,37.4-3.9,72.8-3.9
		c35.5,0,58.9,2,72.8,3.9c2.8-10.3,3.2-18.4,3.2-22.6V78C157.5,76.1,133.2,73.7,94.8,73.7"/>
	<path class="st3" d="M94.8,73.7c-38.3,0-62.7,2.4-76,4.3v5.1c0,4.2,0.5,12.3,3.2,22.6c13.9-1.9,37.4-3.9,72.8-3.9
		c35.5,0,58.9,2,72.8,3.9c2.8-10.3,3.2-18.4,3.2-22.6V78C157.5,76.1,133.2,73.7,94.8,73.7"/>
	<path class="st1" d="M87.5,95.5c-0.3,0.2-1.7,0.4-4.3,0.5h-2.7c-0.1-3.2-0.3-6-0.3-8.4c-0.1-4.9-0.1-7.6,0.1-7.9
		c0.2-0.4,1.2-0.9,2.8-1.4v-0.4c-1.7,0.2-3.2,0.3-4.3,0.4c-1.2,0-2.6,0-4.4-0.2v0.4c1.7,0.4,2.7,0.9,2.9,1.2c0.2,0.3,0.3,3,0.4,7.9
		c0.1,4.9,0.1,7.5-0.1,7.9c-0.2,0.3-1.1,0.9-2.8,1.4v0.5c1.8-0.2,3.4-0.3,4.9-0.3c1.7,0,4.8,0,9.4,0l0.2-4.9h-0.5
		C88.4,94.2,87.8,95.3,87.5,95.5z M70.3,92.7c-0.4,2-0.8,3-1.2,3.3c-0.2,0.1-1.6,0.4-4.3,0.6c-1,0-2.2,0-3.6,0
		c-0.2-1.4-0.3-3.5-0.5-6.4c0-0.6-0.1-1.2-0.1-1.8l2.4-0.1c2.6-0.2,4-0.2,4.3,0s0.9,1.1,1.4,2.8h0.4c-0.2-1.7-0.3-2.9-0.3-3.7
		c0-0.8,0-1.9,0-3.3h-0.4c-0.4,1.6-0.9,2.5-1.2,2.7s-1.7,0.3-4.3,0.4l-2.4,0.1c-0.2-3.6-0.2-6-0.2-7.4c1.4-0.1,2.7-0.1,3.9-0.1
		c2.4-0.1,3.7,0,3.9,0.1c0.3,0.2,0.8,1.1,1.3,2.9h0.4l-0.3-4.6c-1.4,0.2-2.9,0.3-4.4,0.4c-1.3,0.1-2.6,0.1-3.9,0.2
		C60,78.9,58.9,79,57.8,79c-1.2,0.1-2.3,0.1-3.3,0v0.6c1.7,0.4,2.7,0.8,2.9,1.1c0.2,0.3,0.4,3,0.7,7.9c0.2,4.9,0.3,7.5,0.1,7.8
		s-1.1,0.9-2.8,1.5v0.4c1.9-0.2,3.9-0.4,5.8-0.5c1.6-0.1,4.8-0.2,9.5-0.3l-0.1-4.9L70.3,92.7z M161.5,98.5
		c-0.6-1.7-2.6-7.9-5.8-18.8l-0.5-0.1c-5.5,10.7-8.8,16.5-9.4,17.5c-0.4,0.6-1.1,0.9-2.4,1.2c-1.9-0.2-3.3-3.7-6.7-10
		c3.2-0.7,4.9-2.3,5.1-4.5c0.2-2.9-2.1-4.6-6.7-4.9c-1.7-0.1-3.8,0-6.4-0.2c-0.6,0-1.5-0.1-2.6-0.3v0.5c1.7,0.6,2.6,1.1,2.8,1.5
		c0.2,0.3,0.1,3-0.2,7.9c-0.3,4.9-0.5,7.5-0.7,7.8s-1.2,0.8-2.9,1.1v0.5c2-0.1,3.4-0.1,4.3,0c1.2,0.1,2.6,0.3,4.4,0.5v-0.5
		c-2-0.7-2.8-1-2.9-2c0-0.5,0-2.4,0.2-5.5c0-0.6,0.1-1.2,0.1-1.9c0.7,0,1.2,0,1.7,0.1c0.4,0,0.8,0,1,0.1c1.9,3.1,3.8,6.4,5.7,10
		c0.7,0,1.3,0,2,0c0.6,0,1.2,0.1,1.7,0.2l0,0h0.1c0.1,0,0.2,0,0.3,0l0,0c1.3,0,2.3,0,3,0c0.9,0.1,2.1,0.3,3.4,0.6v-0.5
		c-1.7-0.4-2.5-0.8-2.5-1.3c0.1-0.5,0.8-2.1,2.1-4.8l7.5,0.6c0.9,2.8,1.3,4.5,1.3,4.9s-1,0.7-3,1v0.4c1.7,0,3.2,0,4.4,0.1
		c0.9,0.1,2.3,0.3,4.3,0.6v-0.5C162.6,99.7,161.8,99.3,161.5,98.5z M133.2,87.5l-2-0.1c0.1-2.3,0.3-4.8,0.5-7.5c0.7,0,1.2,0,1.6,0
		c3.9,0.2,5.7,1.4,5.5,4.2C138.7,86.6,136.8,87.7,133.2,87.5z M150.2,91.7c1.5-2.9,2.9-5.6,4.1-7.8c1,3,1.7,5.8,2.4,8.4L150.2,91.7z
		 M50.5,96.6c-0.5-1.4-1-3.9-1.9-7.7c-0.7-3.4-1.2-5.8-1.4-7c-0.1-1.1,0.4-1.3,2.6-2.1v-0.4c-1.1,0.2-2.1,0.3-2.9,0.4
		c-0.8,0-1.6,0.1-2.7,0.1c-1.6,4.9-3.3,9.8-5.2,14.8c-2.7-4.9-5.2-9.5-7.3-13.8c-1.3,0.1-2.4,0.3-3.4,0.4c-0.6,0.1-1.2,0-2,0v0.4
		c2.3,0.5,2.5,0.6,2.6,1.9c0,0.4,0.2,4.2-0.1,11.3c-0.1,1.5-0.2,2.6-0.4,3.5c-0.1,0.7-1,1.2-2.8,1.8v0.5c1.4-0.3,2.6-0.5,3.7-0.6
		c0.6-0.1,1.8-0.1,3.7,0v-0.5c-2.5-0.5-2.8-0.5-2.9-2c-0.1-1.4-0.2-6,0-13.9c2.6,4.6,5.4,9.9,8.4,16h0.4c1.8-6.2,3.7-11.9,5.6-17
		c1.6,7.1,2.6,11.8,2.8,14c0.1,1.2-0.3,1.2-2.8,2.1v0.5c1.8-0.3,3.3-0.6,4.6-0.7c0.7-0.1,2-0.1,3.9-0.1v-0.4
		C51.6,97.5,50.8,97.3,50.5,96.6z M113.8,77.6c-2.9-0.1-5.4,0.9-7.2,3c-1.6,1.8-2.4,4.1-2.5,6.8c-0.1,2.9,0.8,5.5,2.5,7.5
		c1.6,1.9,3.9,2.9,6.6,3c2.9,0.1,5.5-1,7.1-2.9c1.6-1.8,2.5-4.1,2.5-6.7c0.1-3-0.8-5.6-2.5-7.5C118.7,78.7,116.5,77.7,113.8,77.6z
		 M119.9,88.7c-0.2,5.3-2.6,8.1-6.6,8c-4.1-0.1-6.4-3.8-6.2-10.1c0.2-5.3,2.5-8.1,6.5-8C117.7,78.8,120.1,82.4,119.9,88.7z
		 M92.3,77.8v0.5c1.7,0.5,2.7,0.9,2.9,1.3c0.2,0.3,0.3,3,0.2,7.9c0,4.9-0.1,7.5-0.3,7.8c-0.2,0.4-1.2,0.9-2.9,1.3V97
		c1.8-0.2,3.2-0.3,4.4-0.3c1.2,0,2.6,0.1,4.3,0.3v-0.5c-1.7-0.5-2.6-1-2.8-1.3c-0.2-0.3-0.3-2.9-0.3-7.8s0.1-7.5,0.3-7.9
		c0.2-0.4,1.2-0.8,2.9-1.3v-0.5c-1.7,0.2-3.2,0.3-4.3,0.3C95.5,78.1,94.1,78,92.3,77.8z"/>
</g>
</svg>
